M48
; DRILL file {KiCad 9.0.7-9.0.7~ubuntu24.04.1} date 2026-03-27T14:04:47+0100
; FORMAT={-:-/ absolute / metric / decimal}
; #@! TF.CreationDate,2026-03-27T14:04:47+01:00
; #@! TF.GenerationSoftware,Kicad,Pcbnew,9.0.7-9.0.7~ubuntu24.04.1
; #@! TF.FileFunction,Plated,1,4,PTH
FMAT,2
METRIC
; #@! TA.AperFunction,Plated,PTH,ViaDrill
T1C0.300
%
G90
G05
T1
X167.45Y-116.95
X167.83Y-112.884
X167.974Y-95.6
X168.25Y-86.625
X168.987Y-84.312
X169.5Y-108.775
X170.009Y-85.225
X170.3Y-83.95
X170.65Y-91.6
X170.8Y-100.8
X170.825Y-105.275
X170.975Y-96.35
X170.975Y-109.55
X171.05Y-87.75
X171.075Y-113.85
X171.45Y-118.25
X171.525Y-87.05
X171.525Y-87.05
X175.124Y-100.3
X176.68Y-117.759
X181.258Y-117.752
X181.3Y-86.775
X181.358Y-113.127
X181.425Y-102.0
X182.163Y-107.212
X184.225Y-87.8
X185.675Y-91.625
X185.8Y-95.95
X185.949Y-117.552
X186.325Y-101.6
X187.7Y-92.025
X188.15Y-106.058
X188.725Y-104.038
X190.399Y-117.752
X190.6Y-99.179
X190.775Y-95.354
X191.075Y-104.125
X191.125Y-109.925
X191.6Y-106.058
X194.688Y-88.412
X195.625Y-102.175
X195.65Y-87.85
X196.309Y-120.29
X196.334Y-117.79
X196.475Y-115.3
X197.8Y-92.125
X197.95Y-96.55
X198.025Y-106.175
X198.075Y-110.75
X198.3Y-102.3
X200.009Y-120.29
X200.034Y-117.79
X200.175Y-115.3
M30
