%TF.GenerationSoftware,KiCad,Pcbnew,9.0.7-9.0.7~ubuntu24.04.1*%
%TF.CreationDate,2026-03-27T14:04:49+01:00*%
%TF.ProjectId,bin-to-dec,62696e2d-746f-42d6-9465-632e6b696361,rev?*%
%TF.SameCoordinates,Original*%
%TF.FileFunction,Paste,Top*%
%TF.FilePolarity,Positive*%
%FSLAX46Y46*%
G04 Gerber Fmt 4.6, Leading zero omitted, Abs format (unit mm)*
G04 Created by KiCad (PCBNEW 9.0.7-9.0.7~ubuntu24.04.1) date 2026-03-27 14:04:49*
%MOMM*%
%LPD*%
G01*
G04 APERTURE LIST*
G04 Aperture macros list*
%AMRoundRect*
0 Rectangle with rounded corners*
0 $1 Rounding radius*
0 $2 $3 $4 $5 $6 $7 $8 $9 X,Y pos of 4 corners*
0 Add a 4 corners polygon primitive as box body*
4,1,4,$2,$3,$4,$5,$6,$7,$8,$9,$2,$3,0*
0 Add four circle primitives for the rounded corners*
1,1,$1+$1,$2,$3*
1,1,$1+$1,$4,$5*
1,1,$1+$1,$6,$7*
1,1,$1+$1,$8,$9*
0 Add four rect primitives between the rounded corners*
20,1,$1+$1,$2,$3,$4,$5,0*
20,1,$1+$1,$4,$5,$6,$7,0*
20,1,$1+$1,$6,$7,$8,$9,0*
20,1,$1+$1,$8,$9,$2,$3,0*%
G04 Aperture macros list end*
%ADD10RoundRect,0.150000X-0.150000X0.587500X-0.150000X-0.587500X0.150000X-0.587500X0.150000X0.587500X0*%
%ADD11RoundRect,0.225000X-0.225000X-0.250000X0.225000X-0.250000X0.225000X0.250000X-0.225000X0.250000X0*%
%ADD12RoundRect,0.150000X0.587500X0.150000X-0.587500X0.150000X-0.587500X-0.150000X0.587500X-0.150000X0*%
%ADD13RoundRect,0.150000X-0.587500X-0.150000X0.587500X-0.150000X0.587500X0.150000X-0.587500X0.150000X0*%
G04 APERTURE END LIST*
D10*
%TO.C,Q15*%
X174450000Y-114675000D03*
X172550000Y-114675000D03*
X173500000Y-116550000D03*
%TD*%
D11*
%TO.C,C1*%
X197522500Y-115285000D03*
X199072500Y-115285000D03*
%TD*%
D12*
%TO.C,Q10*%
X173865218Y-107176016D03*
X173865218Y-105276016D03*
X171990218Y-106226016D03*
%TD*%
D10*
%TO.C,Q20*%
X183400000Y-119325000D03*
X181500000Y-119325000D03*
X182450000Y-121200000D03*
%TD*%
%TO.C,Q29*%
X192300000Y-114750000D03*
X190400000Y-114750000D03*
X191350000Y-116625000D03*
%TD*%
%TO.C,Q18*%
X178900000Y-119250000D03*
X177000000Y-119250000D03*
X177950000Y-121125000D03*
%TD*%
D12*
%TO.C,Q31*%
X193496484Y-107958984D03*
X193496484Y-106058984D03*
X191621484Y-107008984D03*
%TD*%
D13*
%TO.C,Q25*%
X187874984Y-89308016D03*
X187874984Y-91208016D03*
X189749984Y-90258016D03*
%TD*%
D10*
%TO.C,Q8*%
X170000000Y-119250000D03*
X168100000Y-119250000D03*
X169050000Y-121125000D03*
%TD*%
D12*
%TO.C,Q13*%
X173971218Y-94117016D03*
X173971218Y-92217016D03*
X172096218Y-93167016D03*
%TD*%
%TO.C,Q9*%
X173865218Y-102726016D03*
X173865218Y-100826016D03*
X171990218Y-101776016D03*
%TD*%
%TO.C,Q23*%
X189403984Y-107958984D03*
X189403984Y-106058984D03*
X187528984Y-107008984D03*
%TD*%
D10*
%TO.C,Q7*%
X170000000Y-114675000D03*
X168100000Y-114675000D03*
X169050000Y-116550000D03*
%TD*%
D13*
%TO.C,Q34*%
X192142484Y-93228016D03*
X192142484Y-95128016D03*
X194017484Y-94178016D03*
%TD*%
D10*
%TO.C,Q16*%
X174450000Y-119250000D03*
X172550000Y-119250000D03*
X173500000Y-121125000D03*
%TD*%
D11*
%TO.C,C2*%
X197522500Y-117795000D03*
X199072500Y-117795000D03*
%TD*%
D13*
%TO.C,Q28*%
X187914984Y-101328016D03*
X187914984Y-103228016D03*
X189789984Y-102278016D03*
%TD*%
D12*
%TO.C,Q14*%
X173971218Y-98567016D03*
X173971218Y-96667016D03*
X172096218Y-97617016D03*
%TD*%
D10*
%TO.C,Q17*%
X178900000Y-114675000D03*
X177000000Y-114675000D03*
X177950000Y-116550000D03*
%TD*%
D12*
%TO.C,Q4*%
X169396218Y-89667016D03*
X169396218Y-87767016D03*
X167521218Y-88717016D03*
%TD*%
D11*
%TO.C,C3*%
X197522500Y-120305000D03*
X199072500Y-120305000D03*
%TD*%
D12*
%TO.C,Q3*%
X169290218Y-111626016D03*
X169290218Y-109726016D03*
X167415218Y-110676016D03*
%TD*%
%TO.C,Q1*%
X169290218Y-102726016D03*
X169290218Y-100826016D03*
X167415218Y-101776016D03*
%TD*%
D13*
%TO.C,Q36*%
X192152484Y-101328016D03*
X192152484Y-103228016D03*
X194027484Y-102278016D03*
%TD*%
D12*
%TO.C,Q2*%
X169290218Y-107176016D03*
X169290218Y-105276016D03*
X167415218Y-106226016D03*
%TD*%
%TO.C,Q24*%
X189416484Y-111828984D03*
X189416484Y-109928984D03*
X187541484Y-110878984D03*
%TD*%
%TO.C,Q12*%
X173971218Y-89667016D03*
X173971218Y-87767016D03*
X172096218Y-88717016D03*
%TD*%
D10*
%TO.C,Q19*%
X183400000Y-114750000D03*
X181500000Y-114750000D03*
X182450000Y-116625000D03*
%TD*%
D13*
%TO.C,Q26*%
X187854984Y-93228016D03*
X187854984Y-95128016D03*
X189729984Y-94178016D03*
%TD*%
%TO.C,Q35*%
X192167484Y-97278016D03*
X192167484Y-99178016D03*
X194042484Y-98228016D03*
%TD*%
D12*
%TO.C,Q32*%
X193543984Y-111843984D03*
X193543984Y-109943984D03*
X191668984Y-110893984D03*
%TD*%
D10*
%TO.C,Q21*%
X187850000Y-114750000D03*
X185950000Y-114750000D03*
X186900000Y-116625000D03*
%TD*%
D12*
%TO.C,Q6*%
X169396218Y-98567016D03*
X169396218Y-96667016D03*
X167521218Y-97617016D03*
%TD*%
D10*
%TO.C,Q30*%
X192300000Y-119325000D03*
X190400000Y-119325000D03*
X191350000Y-121200000D03*
%TD*%
D13*
%TO.C,Q33*%
X192112484Y-89308016D03*
X192112484Y-91208016D03*
X193987484Y-90258016D03*
%TD*%
D12*
%TO.C,Q11*%
X173865218Y-111626016D03*
X173865218Y-109726016D03*
X171990218Y-110676016D03*
%TD*%
%TO.C,Q5*%
X169396218Y-94117016D03*
X169396218Y-92217016D03*
X167521218Y-93167016D03*
%TD*%
D10*
%TO.C,Q22*%
X187850000Y-119325000D03*
X185950000Y-119325000D03*
X186900000Y-121200000D03*
%TD*%
D13*
%TO.C,Q27*%
X187929984Y-97278016D03*
X187929984Y-99178016D03*
X189804984Y-98228016D03*
%TD*%
M02*
