%TF.GenerationSoftware,KiCad,Pcbnew,9.0.7-9.0.7~ubuntu24.04.1*%
%TF.CreationDate,2026-03-27T14:04:50+01:00*%
%TF.ProjectId,bin-to-dec,62696e2d-746f-42d6-9465-632e6b696361,rev?*%
%TF.SameCoordinates,Original*%
%TF.FileFunction,Soldermask,Bot*%
%TF.FilePolarity,Negative*%
%FSLAX46Y46*%
G04 Gerber Fmt 4.6, Leading zero omitted, Abs format (unit mm)*
G04 Created by KiCad (PCBNEW 9.0.7-9.0.7~ubuntu24.04.1) date 2026-03-27 14:04:50*
%MOMM*%
%LPD*%
G01*
G04 APERTURE LIST*
G04 Aperture macros list*
%AMRoundRect*
0 Rectangle with rounded corners*
0 $1 Rounding radius*
0 $2 $3 $4 $5 $6 $7 $8 $9 X,Y pos of 4 corners*
0 Add a 4 corners polygon primitive as box body*
4,1,4,$2,$3,$4,$5,$6,$7,$8,$9,$2,$3,0*
0 Add four circle primitives for the rounded corners*
1,1,$1+$1,$2,$3*
1,1,$1+$1,$4,$5*
1,1,$1+$1,$6,$7*
1,1,$1+$1,$8,$9*
0 Add four rect primitives between the rounded corners*
20,1,$1+$1,$2,$3,$4,$5,0*
20,1,$1+$1,$4,$5,$6,$7,0*
20,1,$1+$1,$6,$7,$8,$9,0*
20,1,$1+$1,$8,$9,$2,$3,0*%
G04 Aperture macros list end*
%ADD10C,2.600000*%
%ADD11R,0.600000X2.000000*%
%ADD12RoundRect,0.150000X-0.587500X-0.150000X0.587500X-0.150000X0.587500X0.150000X-0.587500X0.150000X0*%
G04 APERTURE END LIST*
D10*
%TO.C,J1*%
X198800000Y-125000000D03*
X168600000Y-125000000D03*
D11*
X194825000Y-81450000D03*
X194025000Y-81450000D03*
X193225000Y-81450000D03*
X192425000Y-81450000D03*
X191625000Y-81450000D03*
X190825000Y-81450000D03*
X190025000Y-81450000D03*
X189225000Y-81450000D03*
X185225000Y-81450000D03*
X184425000Y-81450000D03*
X183625000Y-81450000D03*
X182825000Y-81450000D03*
X182025000Y-81450000D03*
X181225000Y-81450000D03*
X180425000Y-81450000D03*
X179625000Y-81450000D03*
X178825000Y-81450000D03*
X178025000Y-81450000D03*
X177225000Y-81450000D03*
X176425000Y-81450000D03*
X175625000Y-81450000D03*
X174825000Y-81450000D03*
X174025000Y-81450000D03*
X173225000Y-81450000D03*
X172425000Y-81450000D03*
X171625000Y-81450000D03*
%TD*%
D12*
%TO.C,Q40*%
X196897500Y-90315000D03*
X196897500Y-88415000D03*
X198772500Y-89365000D03*
%TD*%
%TO.C,Q46*%
X192322500Y-90315000D03*
X192322500Y-88415000D03*
X194197500Y-89365000D03*
%TD*%
%TO.C,Q50*%
X185543984Y-94187016D03*
X185543984Y-92287016D03*
X187418984Y-93237016D03*
%TD*%
%TO.C,Q52*%
X184953984Y-105227016D03*
X184953984Y-103327016D03*
X186828984Y-104277016D03*
%TD*%
%TO.C,Q47*%
X192322500Y-94765000D03*
X192322500Y-92865000D03*
X194197500Y-93815000D03*
%TD*%
%TO.C,Q59*%
X172643984Y-111247016D03*
X172643984Y-109347016D03*
X174518984Y-110297016D03*
%TD*%
%TO.C,Q66*%
X172413984Y-93557016D03*
X172413984Y-91657016D03*
X174288984Y-92607016D03*
%TD*%
%TO.C,Q58*%
X180813984Y-109112016D03*
X180813984Y-107212016D03*
X182688984Y-108162016D03*
%TD*%
%TO.C,Q44*%
X192457500Y-108975000D03*
X192457500Y-107075000D03*
X194332500Y-108025000D03*
%TD*%
%TO.C,Q51*%
X185543984Y-98637016D03*
X185543984Y-96737016D03*
X187418984Y-97687016D03*
%TD*%
%TO.C,Q43*%
X192457500Y-104525000D03*
X192457500Y-102625000D03*
X194332500Y-103575000D03*
%TD*%
%TO.C,Q69*%
X168068984Y-111247016D03*
X168068984Y-109347016D03*
X169943984Y-110297016D03*
%TD*%
%TO.C,Q68*%
X168286484Y-93572016D03*
X168286484Y-91672016D03*
X170161484Y-92622016D03*
%TD*%
%TO.C,Q65*%
X172426484Y-89687016D03*
X172426484Y-87787016D03*
X174301484Y-88737016D03*
%TD*%
%TO.C,Q70*%
X168068984Y-115697016D03*
X168068984Y-113797016D03*
X169943984Y-114747016D03*
%TD*%
%TO.C,Q67*%
X168333984Y-89687016D03*
X168333984Y-87787016D03*
X170208984Y-88737016D03*
%TD*%
%TO.C,Q39*%
X197032500Y-113425000D03*
X197032500Y-111525000D03*
X198907500Y-112475000D03*
%TD*%
%TO.C,Q63*%
X172548984Y-102609516D03*
X172548984Y-100709516D03*
X174423984Y-101659516D03*
%TD*%
%TO.C,Q37*%
X197032500Y-104525000D03*
X197032500Y-102625000D03*
X198907500Y-103575000D03*
%TD*%
%TO.C,Q53*%
X184941484Y-109097016D03*
X184941484Y-107197016D03*
X186816484Y-108147016D03*
%TD*%
%TO.C,Q38*%
X197032500Y-108975000D03*
X197032500Y-107075000D03*
X198907500Y-108025000D03*
%TD*%
%TO.C,Q71*%
X168068984Y-120147016D03*
X168068984Y-118247016D03*
X169943984Y-119197016D03*
%TD*%
%TO.C,Q73*%
X167973984Y-102609516D03*
X167973984Y-100709516D03*
X169848984Y-101659516D03*
%TD*%
%TO.C,Q48*%
X192322500Y-99215000D03*
X192322500Y-97315000D03*
X194197500Y-98265000D03*
%TD*%
%TO.C,Q54*%
X180968984Y-89737016D03*
X180968984Y-87837016D03*
X182843984Y-88787016D03*
%TD*%
%TO.C,Q55*%
X180968984Y-94187016D03*
X180968984Y-92287016D03*
X182843984Y-93237016D03*
%TD*%
%TO.C,Q74*%
X167973984Y-107059516D03*
X167973984Y-105159516D03*
X169848984Y-106109516D03*
%TD*%
%TO.C,Q56*%
X180968984Y-98637016D03*
X180968984Y-96737016D03*
X182843984Y-97687016D03*
%TD*%
%TO.C,Q72*%
X167973984Y-98159516D03*
X167973984Y-96259516D03*
X169848984Y-97209516D03*
%TD*%
%TO.C,Q45*%
X192457500Y-113425000D03*
X192457500Y-111525000D03*
X194332500Y-112475000D03*
%TD*%
%TO.C,Q62*%
X172548984Y-98159516D03*
X172548984Y-96259516D03*
X174423984Y-97209516D03*
%TD*%
%TO.C,Q49*%
X185543984Y-89737016D03*
X185543984Y-87837016D03*
X187418984Y-88787016D03*
%TD*%
%TO.C,Q61*%
X172643984Y-120147016D03*
X172643984Y-118247016D03*
X174518984Y-119197016D03*
%TD*%
%TO.C,Q57*%
X180861484Y-105227016D03*
X180861484Y-103327016D03*
X182736484Y-104277016D03*
%TD*%
%TO.C,Q42*%
X196897500Y-99215000D03*
X196897500Y-97315000D03*
X198772500Y-98265000D03*
%TD*%
%TO.C,Q60*%
X172643984Y-115697016D03*
X172643984Y-113797016D03*
X174518984Y-114747016D03*
%TD*%
%TO.C,Q64*%
X172548984Y-107059516D03*
X172548984Y-105159516D03*
X174423984Y-106109516D03*
%TD*%
%TO.C,Q41*%
X196897500Y-94765000D03*
X196897500Y-92865000D03*
X198772500Y-93815000D03*
%TD*%
M02*
